<?xml version="1.0" encoding="UTF-8"?>
<svg width="20px" height="20px" viewBox="0 0 20 20" version="1.1" xmlns="http://www.w3.org/2000/svg" xmlns:xlink="http://www.w3.org/1999/xlink">
    <!-- Generator: Sketch 52.6 (67491) - http://www.bohemiancoding.com/sketch -->
    <title>ic_help_talent</title>
    <desc>Created with Sketch.</desc>
    <g id="assets" stroke="none" stroke-width="1" fill="none" fill-rule="evenodd" opacity="0.200000003">
        <g id="Artboard" transform="translate(-738.000000, -1264.000000)" fill="#000000">
            <g id="ic_help_talent" transform="translate(736.000000, 1262.000000)">
                <g id="ic_help-copy" transform="translate(2.000000, 2.000000)">
                    <path d="M10,0.454545455 C15.2762127,0.454545455 19.5454545,4.72449574 19.5454545,10 C19.5454545,15.2762127 15.2755043,19.5454545 10,19.5454545 C4.72378729,19.5454545 0.454545455,15.2755043 0.454545455,10 C0.454545455,4.72378729 4.72449574,0.454545455 10,0.454545455 Z M10,15.4998224 C10.5148251,15.4998224 10.9321733,15.0824742 10.9321733,14.5676491 C10.9321733,14.0528241 10.5148251,13.6354759 10,13.6354759 C9.4851749,13.6354759 9.0678267,14.0528241 9.0678267,14.5676491 C9.0678267,15.0824742 9.4851749,15.4998224 10,15.4998224 Z M10,5.24591619 C8.35519886,5.24591619 7.01704545,6.5840696 7.01704545,8.22887074 C7.01704545,8.64074219 7.35091264,8.97460938 7.76278409,8.97460938 C8.17465554,8.97460938 8.50852273,8.64074219 8.50852273,8.22887074 C8.50852273,7.40647017 9.17759943,6.73739347 10,6.73739347 C10.8224006,6.73739347 11.4914773,7.40647017 11.4914773,8.22887074 C11.4914773,9.05127131 10.8224006,9.72034801 10,9.72034801 C9.58812855,9.72034801 9.25426136,10.0542152 9.25426136,10.4660866 L9.25426136,12.3304332 C9.25426136,12.7423047 9.58812855,13.0761719 10,13.0761719 C10.4118714,13.0761719 10.7457386,12.7423047 10.7457386,12.3304332 L10.7457386,11.1174521 C12.03087,10.7854865 12.9829545,9.61628018 12.9829545,8.22887074 C12.9829545,6.5840696 11.6448011,5.24591619 10,5.24591619 Z" id="Combined-Shape" fill-rule="nonzero"></path>
                </g>
            </g>
        </g>
    </g>
</svg>