<?xml version="1.0" encoding="UTF-8"?>
<svg width="20px" height="20px" viewBox="0 0 20 20" version="1.1" xmlns="http://www.w3.org/2000/svg" xmlns:xlink="http://www.w3.org/1999/xlink">
    <!-- Generator: Sketch 52.6 (67491) - http://www.bohemiancoding.com/sketch -->
    <title>ic_request</title>
    <desc>Created with Sketch.</desc>
    <g id="assets" stroke="none" stroke-width="1" fill="none" fill-rule="evenodd" opacity="0.200000003">
        <g id="Artboard" transform="translate(-519.000000, -1262.000000)" fill="#000000">
            <g id="ic_request" transform="translate(517.000000, 1260.000000)">
                <g id="question-mark-on-a-circular-black-background" transform="translate(2.000000, 2.000000)">
                    <path d="M18.6393166,4.97507973 C17.7460137,3.44469248 16.5343052,2.23298405 15.0038724,1.33972665 C13.4731663,0.446514806 11.8021868,0 9.98965831,0 C8.17731207,0 6.50583144,0.446514806 4.97539863,1.33972665 C3.44487472,2.23284738 2.23316629,3.44455581 1.33986333,4.97507973 C0.446514806,6.50569476 0,8.1771754 0,9.98938497 C0,11.8016856 0.446651481,13.4728929 1.33972665,15.0035991 C2.23298405,16.5339863 3.44469248,17.7456948 4.9752164,18.6390433 C6.50583144,19.5322096 8.1771754,19.9787699 9.98947608,19.9787699 C11.8017768,19.9787699 13.473303,19.5322096 15.0038269,18.6390433 C16.5342597,17.7460137 17.7459226,16.5339863 18.6391344,15.0035991 C19.5322096,13.4730296 19.9786788,11.8015945 19.9786788,9.98938497 C19.9787244,8.17699317 19.5322096,6.50546697 18.6393166,4.97507973 Z M11.6546697,16.2327563 C11.6546697,16.3540319 11.6153986,16.4538497 11.5374487,16.531754 C11.4598178,16.6097039 11.36,16.6487016 11.2387244,16.6487016 L8.74109339,16.6487016 C8.61972665,16.6487016 8.51995444,16.6097039 8.44191344,16.531754 C8.36382688,16.4538041 8.32482916,16.3540319 8.32482916,16.2327563 L8.32482916,13.7351253 C8.32482916,13.6138497 8.36378132,13.5140319 8.44191344,13.4361276 C8.51995444,13.3583144 8.61972665,13.3193622 8.74109339,13.3193622 L11.2387244,13.3193622 C11.36,13.3193622 11.4598178,13.3583144 11.5374487,13.4361276 C11.6153986,13.5140774 11.6546697,13.6138497 11.6546697,13.7351253 L11.6546697,16.2327563 Z M14.8217768,8.54551253 C14.7132574,8.86637813 14.5919818,9.12883827 14.4575854,9.33252847 C14.3232346,9.53630979 14.1301595,9.74446469 13.8785877,9.95681093 C13.6275626,10.1692483 13.4279727,10.3210934 13.2801822,10.4123007 C13.1330296,10.5031891 12.9203645,10.6270159 12.6431891,10.7829157 C12.3569476,10.9475171 12.1208656,11.1622323 11.934533,11.4268337 C11.7480638,11.6912528 11.6548519,11.9057859 11.6548519,12.0703872 C11.6548519,12.1920273 11.6155809,12.291754 11.5375854,12.3697494 C11.4598178,12.4476993 11.3600456,12.4866515 11.2387244,12.4866515 L8.74123007,12.4866515 C8.61986333,12.4866515 8.52009112,12.4476993 8.44205011,12.3697494 C8.363918,12.291754 8.32505695,12.1920273 8.32505695,12.0703872 L8.32505695,11.6020957 C8.32505695,11.021139 8.55252847,10.4767654 9.00783599,9.96965831 C9.46314351,9.46232346 9.963918,9.08728929 10.5102961,8.84446469 C10.9262415,8.65375854 11.2211845,8.4585877 11.3945786,8.25917995 C11.568246,8.05977221 11.6549431,7.79503417 11.6549431,7.46569476 C11.6549431,7.1794533 11.4922096,6.92369021 11.1669704,6.69808656 C10.8417312,6.47271071 10.4712984,6.36 10.0549431,6.36 C9.603918,6.36 9.23116173,6.46410023 8.93626424,6.67230068 C8.65002278,6.88027335 8.27726651,7.27922551 7.81763098,7.86879271 C7.73958998,7.9729385 7.63116173,8.02510251 7.4923918,8.02510251 C7.38833713,8.02510251 7.30592255,7.9991344 7.24528474,7.94724374 L5.5284738,6.64646925 C5.32906606,6.49034169 5.29439636,6.30833713 5.42432802,6.10018223 C6.53439636,4.25316629 8.14287016,3.32965831 10.2499317,3.32965831 C11.0045103,3.32965831 11.7416856,3.50747153 12.4613667,3.86305239 C13.1810023,4.21845103 13.7815945,4.72145786 14.2630068,5.37189066 C14.7438269,6.02209567 14.9848747,6.72892938 14.9848747,7.49202733 C14.9842369,7.87353075 14.9298405,8.22455581 14.8217768,8.54551253 Z" id="Shape" fill-rule="nonzero"></path>
                </g>
            </g>
        </g>
    </g>
</svg>