<?xml version="1.0" encoding="UTF-8"?>
<svg width="20px" height="18px" viewBox="0 0 20 18" version="1.1" xmlns="http://www.w3.org/2000/svg" xmlns:xlink="http://www.w3.org/1999/xlink">
    <!-- Generator: Sketch 52.6 (67491) - http://www.bohemiancoding.com/sketch -->
    <title>ic_videos_active</title>
    <desc>Created with Sketch.</desc>
    <g id="assets" stroke="none" stroke-width="1" fill="none" fill-rule="evenodd">
        <g id="Artboard" transform="translate(-557.000000, -1302.000000)" fill="#9D0A5B">
            <g id="ic_videos_active" transform="translate(555.000000, 1299.000000)">
                <g id="movie-symbol-of-video-camera-(1)" transform="translate(2.000000, 3.000000)">
                    <path d="M18.75,7.71548507 L15,10.2845149 C15,9.50480597 14.655,8.81502985 14.1212418,8.34360448 C15.3918627,7.55684328 16.25,6.13937687 16.25,4.50419776 C16.25,2.02120522 14.2912418,0.00839552239 11.875,0.00839552239 C9.45875817,0.00839552239 7.5,2.02123881 7.5,4.50419776 C7.5,5.76366045 8.00686275,6.89917164 8.81937908,7.71548507 L6.52686275,7.71548507 C7.12562092,7.03276119 7.5,6.13810075 7.5,5.14645522 C7.5,3.01802239 5.82124183,1.29291045 3.75,1.29291045 C1.67875817,1.29291045 0,3.01802239 0,5.14645522 C0,6.30765672 0.510620915,7.33654478 1.30124183,8.04304478 C0.529379085,8.48041791 0,9.31469776 0,10.2845149 L0,15.4225746 C0,16.8413172 1.11937908,17.9916045 2.5,17.9916045 L12.5,17.9916045 C13.8806209,17.9916045 15,16.8413172 15,15.4225746 L18.75,17.9916045 C19.4406209,17.9916045 20,17.4167799 20,16.7070896 L20,9 C20,8.2903097 19.4406209,7.71548507 18.75,7.71548507 Z M3.75,7.71548507 C2.36937908,7.71548507 1.25,6.56519776 1.25,5.14645522 C1.25,3.72771269 2.36937908,2.57742537 3.75,2.57742537 C5.13062092,2.57742537 6.25,3.72771269 6.25,5.14645522 C6.25,6.56519776 5.13062092,7.71548507 3.75,7.71548507 Z M11.875,7.72253731 C10.145,7.72253731 8.74313725,6.28129478 8.74313725,4.50419776 C8.74313725,2.7264291 10.1456536,1.28585821 11.875,1.28585821 C13.6043464,1.28585821 15.0068627,2.7264291 15.0068627,4.50419776 C15.0068627,6.28196642 13.6049673,7.72253731 11.875,7.72253731 Z" id="Shape" fill-rule="nonzero"></path>
                </g>
            </g>
        </g>
    </g>
</svg>