<?xml version="1.0" encoding="UTF-8"?>
<svg width="20px" height="17px" viewBox="0 0 20 17" version="1.1" xmlns="http://www.w3.org/2000/svg" xmlns:xlink="http://www.w3.org/1999/xlink">
    <!-- Generator: Sketch 52.6 (67491) - http://www.bohemiancoding.com/sketch -->
    <title>pawprint</title>
    <desc>Created with Sketch.</desc>
    <g id="assets" stroke="none" stroke-width="1" fill="none" fill-rule="evenodd" opacity="0.600000024">
        <g id="Artboard" transform="translate(-826.000000, -793.000000)" fill="#9D0A5B">
            <g id="pawprint" transform="translate(826.000000, 793.000000)">
                <path d="M13.3482578,9.08253695 C12.4500487,7.71868896 10.9202912,6.90432304 9.25606117,6.90432304 C7.59183115,6.90432304 6.06207361,7.71868896 5.1640168,9.08253695 L2.99966495,12.3689052 C2.64056409,12.9140887 2.47487209,13.5440587 2.52040694,14.1901855 C2.56594175,14.8364607 2.81859162,15.4382673 3.25094421,15.930978 C3.68360136,16.4232439 4.25529973,16.759722 4.90420932,16.9040963 C5.55311891,17.0484706 6.21832359,16.9868077 6.82778994,16.7260742 L6.86860382,16.708435 C8.40216862,16.065421 10.1545748,16.0713501 11.6841801,16.7260742 C12.0787646,16.8949062 12.4968019,16.9802857 12.9186464,16.9802857 C13.1479959,16.9802857 13.3787159,16.9549386 13.6073039,16.9042445 C14.2562135,16.7600185 14.8279118,16.4235404 15.2607212,15.9311262 C15.6932261,15.4388602 15.9460283,14.8369054 15.9917154,14.190482 C16.0374025,13.5440587 15.8717105,12.9142369 15.5126097,12.368757 L13.3482578,9.08253695 Z" id="Path"></path>
                <path d="M3.58263279,9.07823834 C4.2265168,8.83751569 4.71567372,8.33250211 4.9599476,7.65613666 C5.19249513,7.01252964 5.17345883,6.28591484 4.90618908,5.60999408 C4.63876706,4.93451798 4.15235135,4.38310894 3.53648881,4.05715507 C2.88955899,3.71489608 2.17881945,3.65916227 1.53600148,3.90032958 C0.242750955,4.38429476 -0.350724912,5.9398019 0.213206628,7.36857388 C0.663681793,8.50578091 1.71433357,9.22365023 2.77655945,9.22365023 C3.04778873,9.22365023 3.31977949,9.17681015 3.58263279,9.07823834 Z" id="Path"></path>
                <path d="M7.78219419,6.50351389 C9.39890959,6.50351389 10.7142422,5.04494804 10.7142422,3.25212751 C10.7142422,1.45886229 9.39890959,0 7.78219419,0 C6.16563111,0 4.85045076,1.45886229 4.85045076,3.25212751 C4.85045076,5.04494804 6.16563111,6.50351389 7.78219419,6.50351389 Z" id="Path"></path>
                <path d="M12.8458516,7.30231585 L12.8460039,7.30231585 C13.0946942,7.38265557 13.3484101,7.42104666 13.60106,7.42104666 C14.7800926,7.42104666 15.929124,6.58578057 16.3675682,5.302124 C16.6200658,4.56320625 16.6034661,3.78189521 16.320815,3.10226875 C16.025067,2.39077322 15.4769737,1.87434604 14.7773513,1.64800155 C14.0775768,1.42165703 13.3208455,1.5160784 12.6463511,1.91362655 C12.0020102,2.29338728 11.5082846,2.90957205 11.2560916,3.64848983 C10.7238365,5.20725793 11.4370127,6.84636579 12.8458516,7.30231585 Z" id="Path"></path>
                <path d="M19.0204678,6.92285156 L19.020011,6.92240687 C17.9050926,6.12078856 16.2376645,6.46823555 15.3027534,7.69734409 C14.3687561,8.92704554 14.5148027,10.5802351 15.6280458,11.3824463 C16.0340522,11.675197 16.5137671,11.8151245 17.0047515,11.8151245 C17.8604715,11.8151245 18.7507614,11.3900059 19.3459125,10.6082502 C20.2797575,9.37854877 20.1338633,7.72535925 19.0204678,6.92285156 Z" id="Path"></path>
            </g>
        </g>
    </g>
</svg>