<?xml version="1.0" encoding="UTF-8"?>
<svg width="16px" height="16px" viewBox="0 0 16 16" version="1.1" xmlns="http://www.w3.org/2000/svg" xmlns:xlink="http://www.w3.org/1999/xlink">
    <!-- Generator: Sketch 52.6 (67491) - http://www.bohemiancoding.com/sketch -->
    <title>ic_google</title>
    <desc>Created with Sketch.</desc>
    <g id="assets" stroke="none" stroke-width="1" fill="none" fill-rule="evenodd">
        <g id="Artboard" transform="translate(-394.000000, -578.000000)">
            <g id="ic_google" transform="translate(390.000000, 574.000000)">
                <g id="google" transform="translate(4.000000, 4.000000)">
                    <path d="M3.5459375,9.669 L2.989,11.748125 L0.95340625,11.7911875 C0.3450625,10.6628438 0,9.371875 0,8 C0,6.67340625 0.322625,5.42240625 0.8945,4.320875 L0.8949375,4.320875 L2.7071875,4.653125 L3.5010625,6.4545 C3.33490625,6.93890625 3.24434375,7.45890625 3.24434375,8 C3.24440625,8.58725 3.35078125,9.14990625 3.5459375,9.669 Z" id="Path" fill="#FBBB00"></path>
                    <path d="M15.8602188,6.5055 C15.9520938,6.9894375 16,7.48921875 16,8 C16,8.57275 15.9397813,9.1314375 15.8250625,9.67034375 C15.435625,11.5041875 14.4180313,13.1055 13.008375,14.2386875 L13.0079375,14.23825 L10.7253125,14.1217813 L10.40225,12.1050625 C11.337625,11.5565 12.068625,10.6980313 12.4536875,9.67034375 L8.175875,9.67034375 L8.175875,6.5055 L12.5160938,6.5055 L15.8602188,6.5055 Z" id="Path" fill="#518EF8"></path>
                    <path d="M13.0079062,14.23825 L13.0083437,14.2386875 C11.637375,15.3406563 9.8958125,16 8,16 C4.95340625,16 2.304625,14.2971563 0.95340625,11.7912187 L3.5459375,9.66903125 C4.22153125,11.4720937 5.960875,12.755625 8,12.755625 C8.87646875,12.755625 9.69759375,12.5186875 10.4021875,12.1050625 L13.0079062,14.23825 Z" id="Path" fill="#28B446"></path>
                    <path d="M13.106375,1.84175 L10.5147188,3.9635 C9.7855,3.5076875 8.9235,3.244375 8,3.244375 C5.91471875,3.244375 4.14284375,4.58678125 3.50109375,6.4545 L0.8949375,4.320875 L0.8945,4.320875 C2.2259375,1.75384375 4.908125,0 8,0 C9.94109375,0 11.720875,0.6914375 13.106375,1.84175 Z" id="Path" fill="#F14336"></path>
                </g>
            </g>
        </g>
    </g>
</svg>