<?xml version="1.0" encoding="UTF-8"?>
<svg width="20px" height="16px" viewBox="0 0 20 16" version="1.1" xmlns="http://www.w3.org/2000/svg" xmlns:xlink="http://www.w3.org/1999/xlink">
    <!-- Generator: Sketch 52.6 (67491) - http://www.bohemiancoding.com/sketch -->
    <title>ic_mail</title>
    <desc>Created with Sketch.</desc>
    <g id="assets" stroke="none" stroke-width="1" fill="none" fill-rule="evenodd" opacity="0.3">
        <g id="Artboard" transform="translate(-526.000000, -495.000000)" fill="#000000">
            <g id="ic_mail" transform="translate(524.000000, 491.000000)">
                <g id="envelope-(2)" transform="translate(2.000000, 4.000000)">
                    <path d="M1.91820313,4.95201985 C2.17101563,5.13333995 2.93308594,5.67186104 4.20445313,6.56730521 C5.47585938,7.46274938 6.44984375,8.15221836 7.12644531,8.63575186 C7.20078125,8.68875434 7.35871094,8.80397022 7.6003125,8.98155831 C7.84195313,9.15926551 8.04273438,9.30286849 8.2025,9.41240695 C8.36238281,9.52190571 8.55566406,9.64474442 8.78253906,9.78072457 C9.00933594,9.91658561 9.223125,10.0187792 9.42386719,10.0864318 C9.62464844,10.1546402 9.81050781,10.1884268 9.98148438,10.1884268 L9.99269531,10.1884268 L10.0039453,10.1884268 C10.1749219,10.1884268 10.3608594,10.1546005 10.5616406,10.0864318 C10.7623047,10.0187792 10.9762891,9.9164665 11.2028906,9.78072457 C11.4296094,9.64458561 11.6228906,9.521866 11.7827734,9.41240695 C11.9426563,9.30286849 12.1432813,9.15926551 12.385,8.98155831 C12.6265625,8.80381141 12.7846875,8.68875434 12.8590234,8.63575186 C13.5429297,8.15221836 15.2828906,6.92418859 18.0783594,4.95178164 C18.6210938,4.56655087 19.0745313,4.10171712 19.4387891,3.55759801 C19.8033203,3.01371712 19.9853906,2.44315633 19.9853906,1.84623325 C19.9853906,1.34741439 19.8087109,0.920416873 19.4555078,0.565280397 C19.1023438,0.210064516 18.6840625,0.0325558313 18.2009375,0.0325558313 L1.78433594,0.0325558313 C1.211875,0.0325558313 0.771328125,0.229002481 0.462773438,0.621895782 C0.154257813,1.01486849 0,1.50606452 0,2.09544417 C0,2.57151365 0.20453125,3.08740447 0.613398438,3.64279901 C1.02222656,4.19823325 1.45730469,4.6346799 1.91820313,4.95201985 Z" id="Path"></path>
                    <path d="M18.87,6.16476427 C16.4315625,7.84222333 14.58,9.14588586 13.3162109,10.0754739 C12.8924219,10.3927345 12.5486328,10.640397 12.2846094,10.817866 C12.0205859,10.9954541 11.6694531,11.1768139 11.2307031,11.361866 C10.7921094,11.547196 10.3833594,11.6395831 10.0041016,11.6395831 L9.99273437,11.6395831 L9.98152344,11.6395831 C9.60234375,11.6395831 9.19335937,11.547196 8.75476562,11.361866 C8.31617187,11.1768139 7.96480469,10.9954541 7.70085937,10.817866 C7.43699219,10.640397 7.09308594,10.3927345 6.66933594,10.0754739 C5.66554687,9.32740447 3.81796875,8.02366253 1.12652344,6.16476427 C0.702617187,5.87779653 0.327148438,5.54886352 0,5.1786402 L0,14.1785409 C0,14.677598 0.174648438,15.1043573 0.524140625,15.4595335 C0.873554687,15.8148288 1.29371094,15.9924169 1.78445313,15.9924169 L18.2010938,15.9924169 C18.6917187,15.9924169 19.1118359,15.8148288 19.4612891,15.4595335 C19.8108594,15.1042382 19.9854297,14.6776377 19.9854297,14.1785409 L19.9854297,5.1786402 C19.6656641,5.54120099 19.2940234,5.870134 18.87,6.16476427 Z" id="Path"></path>
                </g>
            </g>
        </g>
    </g>
</svg>