<?xml version="1.0" encoding="UTF-8"?>
<svg width="20px" height="18px" viewBox="0 0 20 18" version="1.1" xmlns="http://www.w3.org/2000/svg" xmlns:xlink="http://www.w3.org/1999/xlink">
    <!-- Generator: Sketch 52.6 (67491) - http://www.bohemiancoding.com/sketch -->
    <title>ic_manage_payout</title>
    <desc>Created with Sketch.</desc>
    <g id="assets" stroke="none" stroke-width="1" fill="none" fill-rule="evenodd" opacity="0.200000003">
        <g id="Artboard" transform="translate(-690.000000, -1264.000000)" fill="#000000">
            <g id="ic_manage_payout" transform="translate(688.000000, 1261.000000)">
                <g id="give-money" transform="translate(2.000000, 3.000000)">
                    <g id="Group" transform="translate(9.408451, 0.000000)">
                        <path d="M5.54602817,5.04069453 C4.94873239,4.79471383 4.77616901,4.64596785 4.77616901,4.37735691 C4.77616901,4.16239871 4.93464789,3.91126688 5.38146479,3.91126688 C5.77667606,3.91126688 6.07977465,4.07135691 6.08247887,4.07274598 C6.1143662,4.09022508 6.15014085,4.09954341 6.18557746,4.09954341 C6.27205634,4.09954341 6.34856338,4.04577492 6.38028169,3.96254662 L6.48884507,3.67744051 C6.52664789,3.57354984 6.46929577,3.48302894 6.39616901,3.45055949 C6.15284507,3.3417492 5.67729577,3.25753698 5.6724507,3.25666881 C5.66478873,3.25527974 5.63814085,3.24943408 5.63814085,3.21742765 L5.63661972,2.8038328 C5.63661972,2.67927974 5.53538028,2.57787781 5.41109859,2.57787781 L5.21633803,2.57787781 C5.09216901,2.57787781 4.99098592,2.67922186 4.99098592,2.80389068 L4.99149296,3.23872669 C4.99149296,3.27206431 4.95633803,3.28653376 4.94349296,3.28960129 C4.34321127,3.43649518 3.96805634,3.88823151 3.96805634,4.45803859 C3.96805634,5.16837299 4.53960563,5.48936334 5.15673239,5.73030868 C5.65008451,5.9292926 5.85132394,6.13105466 5.85132394,6.42698392 C5.85132394,6.74901608 5.56630986,6.97392926 5.15797183,6.97392926 C4.80929577,6.97392926 4.33740845,6.7468746 4.33273239,6.74455949 C4.30253521,6.72985852 4.27053521,6.72245016 4.2376338,6.72245016 C4.14783099,6.72245016 4.0696338,6.77824437 4.0383662,6.86465595 L3.93470423,7.15300322 C3.89785915,7.26065595 3.95459155,7.34805145 4.02721127,7.38694534 C4.31701408,7.542 4.87780282,7.63286817 4.90276056,7.63686174 C4.90946479,7.63784566 4.94360563,7.65017363 4.94360563,7.68223794 L4.94360563,8.11516399 C4.94360563,8.23971704 5.04484507,8.34111897 5.1691831,8.34111897 L5.37042254,8.34111897 C5.4948169,8.34111897 5.59605634,8.23977492 5.59605634,8.11516399 L5.59605634,7.65954984 C5.59605634,7.61695177 5.62664789,7.61318971 5.63295775,7.61162701 C6.2724507,7.46403859 6.6663662,6.98336334 6.6663662,6.3798135 C6.66619718,5.75988424 6.33109859,5.3593119 5.54602817,5.04069453 Z" id="Path"></path>
                        <path d="M5.29459155,0.0294598071 C2.37538028,0.0294598071 0.00907042254,2.46061736 0.00907042254,5.45944051 C0.00907042254,8.45832154 2.37538028,10.889537 5.29459155,10.889537 C8.21369014,10.889537 10.5800563,8.45832154 10.5800563,5.45944051 C10.5800563,2.46061736 8.21369014,0.0294598071 5.29459155,0.0294598071 Z M5.29459155,9.63109968 C3.05188732,9.63109968 1.23397183,7.76332476 1.23397183,5.45949839 C1.23397183,3.15567203 3.05188732,1.28795498 5.29459155,1.28795498 C7.5371831,1.28795498 9.35504225,3.15567203 9.35504225,5.45949839 C9.35504225,7.76332476 7.5371831,9.63109968 5.29459155,9.63109968 Z" id="Shape" fill-rule="nonzero"></path>
                    </g>
                    <g id="Group" transform="translate(0.000000, 11.401929)">
                        <path d="M18.9145352,2.11890675 C17.7905915,2.75619936 16.2447324,3.34545338 14.7030986,3.59386495 C13.331493,3.81484244 10.7510986,3.28190354 10.7510986,2.65248232 C10.7510986,2.41396785 13.0141972,3.24017363 14.3831549,2.86495177 C15.4329014,2.57724116 15.2838873,1.56843087 14.7129014,1.43536977 C14.1452394,1.30300322 10.819493,0.0513376206 9.39892958,0.0081607717 C8.72974648,-0.0121543408 7.0776338,0.247254019 6.27819718,0.381009646 C6.00433803,0.426790997 5.83261972,0.421755627 5.81549296,0.691003215 C5.73594366,1.94232154 5.57915493,4.50121543 5.49369014,5.83784566 C5.49188732,5.86609003 5.53008451,6.24588424 5.83515493,5.9786045 C6.16907042,5.68609003 6.63740845,5.36185852 7.07059155,5.46279743 C7.75019718,5.621209 13.6296901,6.72777492 14.4406761,6.53411576 C15.6008451,6.25705466 18.8850704,4.25754984 19.5147606,3.63605788 C20.4907606,2.67256592 19.7320563,1.65536334 18.9145352,2.11890675 Z" id="Path"></path>
                        <path d="M4.19301408,0.33221865 L1.11290141,0.17629582 C0.875098592,0.164257235 0.632225352,0.348366559 0.573126761,0.58526045 L0.0130704225,5.80902251 C-0.045971831,6.04597428 0.100394366,6.24762058 0.338309859,6.25705466 L3.75183099,6.2567074 C3.98980282,6.26614148 4.19926761,6.07433441 4.21752113,5.8304373 L4.59239437,0.797498392 C4.61053521,0.553659164 4.4308169,0.344257235 4.19301408,0.33221865 Z M2.37971831,5.56466238 C1.90935211,5.56466238 1.52811268,5.17294534 1.52811268,4.68978135 C1.52811268,4.20655949 1.90940845,3.81490032 2.37971831,3.81490032 C2.85002817,3.81490032 3.23132394,4.20661736 3.23132394,4.68978135 C3.23132394,5.17300322 2.85008451,5.56466238 2.37971831,5.56466238 Z" id="Shape" fill-rule="nonzero"></path>
                    </g>
                </g>
            </g>
        </g>
    </g>
</svg>