<?xml version="1.0" encoding="UTF-8"?>
<svg width="17px" height="20px" viewBox="0 0 17 20" version="1.1" xmlns="http://www.w3.org/2000/svg" xmlns:xlink="http://www.w3.org/1999/xlink">
    <!-- Generator: Sketch 52.6 (67491) - http://www.bohemiancoding.com/sketch -->
    <title>ic_manage_price</title>
    <desc>Created with Sketch.</desc>
    <g id="assets" stroke="none" stroke-width="1" fill="none" fill-rule="evenodd" opacity="0.200000003">
        <g id="Artboard" transform="translate(-658.000000, -1263.000000)" fill="#000000">
            <g id="ic_manage_price" transform="translate(654.000000, 1261.000000)">
                <g id="money-bag-with-dollar-symbol" transform="translate(4.000000, 2.000000)">
                    <path d="M9.89154391,13.2848941 C9.81511615,13.2031059 9.7184136,13.1419294 9.61848442,13.0909647 C9.40090368,12.9800941 9.16295184,12.9128471 8.92668555,12.8521412 L8.92668555,14.6411294 C9.3101728,14.5987765 9.75043909,14.4627765 9.95179037,14.1129412 C10.047915,13.9458353 10.067034,13.7405176 10.027881,13.5544941 C10.0066431,13.4536941 9.96277054,13.3611765 9.89154391,13.2848941 Z" id="Path"></path>
                    <path d="M9.97571919,14.1447794 C9.97735659,14.1420794 9.97827762,14.1403794 9.98001735,14.1374794 C9.97858463,14.1398794 9.97715191,14.1422794 9.97571919,14.1447794 Z" id="Path"></path>
                    <path d="M7.12791218,10.4250353 C7.061983,10.5191059 7.02061473,10.6259765 7.00920113,10.7395765 C6.99778754,10.8534118 7.00419263,10.9800471 7.04845042,11.0872 C7.09058924,11.1893176 7.17886402,11.2647059 7.26998017,11.3254118 C7.37222096,11.3933647 7.48467139,11.4464471 7.59919263,11.4914353 C7.69526912,11.5292235 7.80333711,11.5653647 7.91983286,11.6002824 L7.91983286,9.98145882 C7.62553541,10.0428235 7.30398017,10.1738353 7.12791218,10.4250353 Z" id="Path"></path>
                    <path d="M9.99074168,14.1187765 C9.98562482,14.1276765 9.98009862,14.1369765 9.97467475,14.1467765 C9.98101965,14.1353765 9.98603417,14.1269765 9.99074168,14.1187765 Z" id="Path"></path>
                    <path d="M9.9958356,14.1099318 C9.99716598,14.1075318 9.99737065,14.1073318 9.9958356,14.1099318 Z" id="Path"></path>
                    <path d="M9.57167422,4.35148235 C11.1285949,3.07345882 12.1689178,0.194258824 11.5286969,0.0683294118 C10.6780227,-0.0990588235 8.83075354,0.634917647 7.93789235,0.764235294 C6.67151275,0.913647059 5.29224929,-0.577647059 4.51805099,0.2536 C3.88856941,0.929458824 4.96934561,3.38734118 6.66024363,4.45811765 C1.61552975,6.88089412 -5.47515581,19.0434353 6.89492068,19.9259294 C24.0110312,21.1470588 15.4403824,6.71242353 9.57167422,4.35148235 Z M11.0416204,13.9434353 C10.988983,14.4176 10.7318159,14.8464 10.3474136,15.1375059 C9.94153258,15.4448941 9.43244759,15.5878588 8.92663739,15.6279059 L8.92663739,16.1518118 C8.92663739,16.292 8.863983,16.4275765 8.75658924,16.5203765 C8.608983,16.648 8.39207649,16.6794824 8.21292635,16.5988235 C8.03603966,16.5192941 7.91983286,16.3420235 7.91983286,16.1518118 L7.91983286,15.5792 C7.83309915,15.5631059 7.7469915,15.5439529 7.66189518,15.5211294 C7.18916997,15.3942118 6.75068555,15.1468235 6.43038244,14.7808 C6.27083286,14.5983529 6.14075637,14.3913412 6.05079603,14.1678588 C6.02729462,14.1094588 6.00634561,14.0499765 5.98799717,13.9898353 C5.97138244,13.9353882 5.95423796,13.8800471 5.94831445,13.8232941 C5.93834561,13.7280941 5.95765722,13.6309647 6.00307082,13.5461647 C6.09640227,13.3717176 6.29308215,13.2663529 6.49390368,13.2838588 C6.69154674,13.3009882 6.86477337,13.4350118 6.92699433,13.6191059 C6.94616147,13.6758118 6.95916431,13.7339294 6.98069122,13.7900235 C7.0020255,13.8457412 7.02779037,13.8999059 7.05808215,13.9514824 C7.11789518,14.0530353 7.19283003,14.1466824 7.27913031,14.2279529 C7.45702833,14.3954353 7.68361473,14.5042824 7.91983286,14.5690353 L7.91983286,12.6225882 C7.45794334,12.5057412 6.9811728,12.3548235 6.59975637,12.0650353 C6.41439377,11.9241412 6.25710765,11.7490824 6.15409632,11.5418824 C6.04540227,11.3232 6.00037394,11.0795765 5.99854391,10.8376 C5.99666572,10.5919059 6.04443909,10.3483765 6.14932861,10.1245176 C6.24757224,9.91491765 6.38901416,9.72672941 6.56243343,9.57072941 C6.93325496,9.23722353 7.42582153,9.0512 7.91988102,8.98287059 L7.91988102,8.94004706 L7.91988102,8.43901176 C7.91988102,8.29887059 7.98253541,8.16324706 8.08992918,8.07044706 C8.23758357,7.94287059 8.45439377,7.91134118 8.63359207,7.992 C8.81043059,8.07157647 8.92668555,8.2488 8.92668555,8.43901176 L8.92668555,8.94004706 L8.92668555,8.97990588 C8.99251841,8.988 9.05815864,8.99769412 9.12346176,9.00927059 C9.6086119,9.09505882 10.083119,9.29082353 10.4379037,9.63261176 C10.6059773,9.79449412 10.7435666,9.98738824 10.8403173,10.1977412 C10.8673343,10.2564235 10.8909802,10.3164706 10.9114476,10.3776941 C10.9305184,10.4347765 10.9496856,10.4935529 10.9587875,10.5531294 C10.9733314,10.6482353 10.9584986,10.7464941 10.9168414,10.8335059 C10.8315042,11.0117647 10.6401218,11.1252706 10.4387705,11.1168471 C10.2409348,11.1084235 10.0616884,10.9825412 9.99084703,10.8018353 C9.96975354,10.7480941 9.9592068,10.6912 9.93767989,10.6376 C9.91596034,10.5833412 9.88783569,10.5315765 9.85542493,10.4826824 C9.79243343,10.3876235 9.71080453,10.3061176 9.61761756,10.2389647 C9.41583286,10.0933647 9.17109065,10.0175059 8.92654108,9.97510588 L8.92654108,11.8377882 C9.21717847,11.9057882 9.50805666,11.9799529 9.78650992,12.0872471 C10.2073683,12.2494118 10.60617,12.4980706 10.8358867,12.8901647 C10.8002493,12.8290824 10.7655751,12.7695529 10.8370907,12.8921882 C10.9073059,13.0126588 10.8737875,12.9552471 10.8385354,12.8948706 C11.0212975,13.2096 11.0813513,13.5859294 11.0416204,13.9434353 Z" id="Shape" fill-rule="nonzero"></path>
                    <path d="M9.97573725,14.1447118 C9.96949469,14.1556118 9.96407082,14.1652118 9.95977266,14.1725118 C9.9634568,14.1662118 9.968983,14.1567118 9.97573725,14.1447118 Z" id="Path"></path>
                </g>
            </g>
        </g>
    </g>
</svg>