<?xml version="1.0" encoding="UTF-8"?>
<svg width="20px" height="20px" viewBox="0 0 20 20" version="1.1" xmlns="http://www.w3.org/2000/svg" xmlns:xlink="http://www.w3.org/1999/xlink">
    <!-- Generator: Sketch 52.6 (67491) - http://www.bohemiancoding.com/sketch -->
    <title>ic_profile_active</title>
    <desc>Created with Sketch.</desc>
    <g id="assets" stroke="none" stroke-width="1" fill="none" fill-rule="evenodd">
        <g id="Artboard" transform="translate(-593.000000, -1303.000000)" fill="#9D0A5B">
            <g id="ic_profile_active" transform="translate(591.000000, 1301.000000)">
                <g id="user-(3)" transform="translate(2.000000, 2.000000)">
                    <path d="M9.99973333,0 C4.47713333,0 6.66666667e-05,4.4772 6.66666667e-05,9.9998 C6.66666667e-05,15.5222667 4.47713333,19.9998 9.99973333,19.9998 C15.5223333,19.9998 19.9997333,15.5222667 19.9997333,9.9998 C19.9997333,4.47706667 15.5223333,0 9.99973333,0 Z M10.0302,14.7175333 L10.0302,14.7174 L9.96913333,14.7174 L5.69766667,14.7174 C5.69766667,11.5936667 8.44113333,11.5944 9.04993333,10.7776 L9.1196,10.4051333 C8.26426667,9.97166667 7.66046667,8.9266 7.66046667,7.70433333 C7.66046667,6.09406667 8.70793333,4.78846667 9.99973333,4.78846667 C11.2915333,4.78846667 12.339,6.09406667 12.339,7.70433333 C12.339,8.9162 11.7459333,9.95473333 10.902,10.3950667 L10.9813333,10.8183333 C11.6492667,11.5955333 14.3014667,11.6462 14.3014667,14.7175333 L10.0302,14.7175333 Z" id="Shape" fill-rule="nonzero"></path>
                </g>
            </g>
        </g>
    </g>
</svg>