<?xml version="1.0" encoding="UTF-8"?>
<svg width="20px" height="20px" viewBox="0 0 20 20" version="1.1" xmlns="http://www.w3.org/2000/svg" xmlns:xlink="http://www.w3.org/1999/xlink">
    <!-- Generator: Sketch 52.6 (67491) - http://www.bohemiancoding.com/sketch -->
    <title>ic_requests_active</title>
    <desc>Created with Sketch.</desc>
    <g id="assets" stroke="none" stroke-width="1" fill="none" fill-rule="evenodd">
        <g id="Artboard" transform="translate(-521.000000, -1300.000000)" fill="#9D0A5B" fill-rule="nonzero">
            <g id="ic_requests_active" transform="translate(519.000000, 1298.000000)">
                <path d="M20.6393166,6.97507973 C19.7460137,5.44469248 18.5343052,4.23298405 17.0038724,3.33972665 C15.4731663,2.44651481 13.8021868,2 11.9896583,2 C10.1773121,2 8.50583144,2.44651481 6.97539863,3.33972665 C5.44487472,4.23284738 4.23316629,5.44455581 3.33986333,6.97507973 C2.44651481,8.50569476 2,10.1771754 2,11.989385 C2,13.8016856 2.44665148,15.4728929 3.33972665,17.0035991 C4.23298405,18.5339863 5.44469248,19.7456948 6.9752164,20.6390433 C8.50583144,21.5322096 10.1771754,21.9787699 11.9894761,21.9787699 C13.8017768,21.9787699 15.473303,21.5322096 17.0038269,20.6390433 C18.5342597,19.7460137 19.7459226,18.5339863 20.6391344,17.0035991 C21.5322096,15.4730296 21.9786788,13.8015945 21.9786788,11.989385 C21.9787244,10.1769932 21.5322096,8.50546697 20.6393166,6.97507973 Z M13.6546697,18.2327563 C13.6546697,18.3540319 13.6153986,18.4538497 13.5374487,18.531754 C13.4598178,18.6097039 13.36,18.6487016 13.2387244,18.6487016 L10.7410934,18.6487016 C10.6197267,18.6487016 10.5199544,18.6097039 10.4419134,18.531754 C10.3638269,18.4538041 10.3248292,18.3540319 10.3248292,18.2327563 L10.3248292,15.7351253 C10.3248292,15.6138497 10.3637813,15.5140319 10.4419134,15.4361276 C10.5199544,15.3583144 10.6197267,15.3193622 10.7410934,15.3193622 L13.2387244,15.3193622 C13.36,15.3193622 13.4598178,15.3583144 13.5374487,15.4361276 C13.6153986,15.5140774 13.6546697,15.6138497 13.6546697,15.7351253 L13.6546697,18.2327563 Z M16.8217768,10.5455125 C16.7132574,10.8663781 16.5919818,11.1288383 16.4575854,11.3325285 C16.3232346,11.5363098 16.1301595,11.7444647 15.8785877,11.9568109 C15.6275626,12.1692483 15.4279727,12.3210934 15.2801822,12.4123007 C15.1330296,12.5031891 14.9203645,12.6270159 14.6431891,12.7829157 C14.3569476,12.9475171 14.1208656,13.1622323 13.934533,13.4268337 C13.7480638,13.6912528 13.6548519,13.9057859 13.6548519,14.0703872 C13.6548519,14.1920273 13.6155809,14.291754 13.5375854,14.3697494 C13.4598178,14.4476993 13.3600456,14.4866515 13.2387244,14.4866515 L10.7412301,14.4866515 C10.6198633,14.4866515 10.5200911,14.4476993 10.4420501,14.3697494 C10.363918,14.291754 10.3250569,14.1920273 10.3250569,14.0703872 L10.3250569,13.6020957 C10.3250569,13.021139 10.5525285,12.4767654 11.007836,11.9696583 C11.4631435,11.4623235 11.963918,11.0872893 12.5102961,10.8444647 C12.9262415,10.6537585 13.2211845,10.4585877 13.3945786,10.25918 C13.568246,10.0597722 13.6549431,9.79503417 13.6549431,9.46569476 C13.6549431,9.1794533 13.4922096,8.92369021 13.1669704,8.69808656 C12.8417312,8.47271071 12.4712984,8.36 12.0549431,8.36 C11.603918,8.36 11.2311617,8.46410023 10.9362642,8.67230068 C10.6500228,8.88027335 10.2772665,9.27922551 9.81763098,9.86879271 C9.73958998,9.9729385 9.63116173,10.0251025 9.4923918,10.0251025 C9.38833713,10.0251025 9.30592255,9.9991344 9.24528474,9.94724374 L7.5284738,8.64646925 C7.32906606,8.49034169 7.29439636,8.30833713 7.42432802,8.10018223 C8.53439636,6.25316629 10.1428702,5.32965831 12.2499317,5.32965831 C13.0045103,5.32965831 13.7416856,5.50747153 14.4613667,5.86305239 C15.1810023,6.21845103 15.7815945,6.72145786 16.2630068,7.37189066 C16.7438269,8.02209567 16.9848747,8.72892938 16.9848747,9.49202733 C16.9842369,9.87353075 16.9298405,10.2245558 16.8217768,10.5455125 Z" id="Shape"></path>
            </g>
        </g>
    </g>
</svg>