<?xml version="1.0" encoding="UTF-8"?>
<svg width="212px" height="266px" viewBox="0 0 212 266" version="1.1" xmlns="http://www.w3.org/2000/svg" xmlns:xlink="http://www.w3.org/1999/xlink">
    <!-- Generator: Sketch 52.6 (67491) - http://www.bohemiancoding.com/sketch -->
    <title>Group 9</title>
    <desc>Created with Sketch.</desc>
    <defs>
        <path d="M0.82236247,20.2355999 C0.82236247,20.2355999 16.8883245,6.61667703 29.654684,2.60766297 C47.0709448,-2.86245408 131.669369,6.14768101 139.594055,11.8658248 C146.803546,17.0698768 154.034469,62.048399 145.099033,99.3899524 C144.229292,103.028054 132.753443,118.26366 126.497171,121.152044 C117.954303,125.094542 13.0495049,37.2739097 13.0495049,37.2739097 L0.82236247,20.2355999 Z" id="path-1"></path>
        <polygon id="path-3" points="21.2731296 2.7395681 21.0418754 51.677499 0.257199785 49.7383809 0.488453977 0.800449939"></polygon>
        <path d="M67.9165362,84.4328124 C68.3767884,75.1971985 68.7253618,47.8702885 68.7253618,47.8702885 C68.7253618,47.8702885 69.5996155,23.6268019 46.1538246,23.3934313 C32.2887256,23.2570166 25.515798,33.4340048 24.7430705,43.4948713 C24.195957,50.6154936 24.017722,73.5681138 23.512347,78.6582989 C23.2269455,81.5308996 23.2540191,85.1329243 12.5802281,85.9029346 C7.35952367,86.2794843 1.77670904,83.5173683 1.60524252,81.3493891 C1.41685496,78.9705872 0.538089024,56.2197706 1.56350396,41.1070502 C2.53138736,26.8286017 4.73563464,-0.862456624 47.8436723,0.020293097 C91.6669058,0.917698944 93.1841589,33.3066092 92.4779876,49.6639728 C91.4525726,73.4181703 91.4345235,80.2704728 90.904331,85.9164633 C90.562526,89.5579468 84.1787822,92.5477965 78.3026696,92.1013483 C72.7841549,91.6819577 67.7360451,88.0540029 67.9165362,84.4328124" id="path-5"></path>
        <path d="M3.22636825,1.28452117 C3.04686987,1.08040968 1.97755049,-0.121239155 3.90907575,0.70748418 C4.8970839,1.13258856 5.93265146,1.18169809 8.3167581,1.16942071 C9.1651564,1.16328201 10.4753411,1.08194435 11.4955669,1.39194827 C12.2028212,1.60680247 12.4191398,2.07641236 12.5909673,2.50612075 C7.1830034,3.97633733 1.37155169,3.2381597 0.822317347,3.06934568 C0.351325882,1.92294507 1.00028155,1.91834105 0.487867381,1.4410578 C0.540029303,1.12951921 2.48996465,1.18323276 3.22636825,1.28452117 Z" id="path-7"></path>
        <path d="M3.64366362,3.21207026 C3.7219065,2.95271055 4.16988535,1.407295 4.49819862,3.47910333 C4.66542361,4.53956227 5.17476943,5.43888055 6.46040737,7.44009394 C6.91759127,8.15218214 7.68774669,9.21264107 7.96850056,10.2378025 C8.16334068,10.9483561 7.88258681,11.3811338 7.60950381,11.755594 C3.47490446,7.98336813 0.995679027,2.69335084 0.846864134,2.13933394 C1.56792599,1.13105388 1.91925187,1.67432807 2.05119085,0.98832931 C2.33961559,0.865555483 3.33682879,2.53681421 3.64366362,3.21207026 Z" id="path-9"></path>
    </defs>
    <g id="assets" stroke="none" stroke-width="1" fill="none" fill-rule="evenodd">
        <g id="Artboard" transform="translate(-468.000000, -640.000000)">
            <g id="Group-9" transform="translate(468.000000, 640.000000)">
                <path d="M126.625914,47.4298759 C117.563319,54.7397528 111.903447,66.371517 100.802471,71.0372075 C90.3893314,75.4136901 77.1933108,74.1215998 65.9292444,76.4928094 C41.9456173,81.5406674 9.66853121,100.595926 12.1331155,129.902325 C13.2136499,142.750435 21.8983284,157.021467 26.1849903,169.039825 C31.1195787,182.874094 34.0837808,200.174431 47.1122767,208.443416 C69.4733776,222.63772 96.4458427,211.033007 116.609906,199.584703 C127.443828,193.433133 133.41707,189.649822 145.088123,191.758875 C155.896916,193.71152 165.627146,200.611686 176.187116,192.444515 C184.114977,186.312127 184.768323,173.879631 191.424475,166.58205 C198.923669,158.359299 206.529784,157.763177 210.424241,145.401507 C215.148438,130.407455 208.189265,121.037218 203.481327,107.637744 C198.798026,94.3086054 197.303607,80.2569385 191.528439,67.1112596 C179.268585,39.2086007 149.843361,28.7036652 126.625914,47.4298759 Z" id="Fill-3" fill="#F0E1E9"></path>
                <g id="Group-8" transform="translate(58.699659, 0.222222)">
                    <path d="M16.7760816,108.300877 L4.54893918,91.2614396 C4.54893918,91.2614396 20.6149012,77.6425167 33.3812607,73.6335026 C50.7975216,68.1633856 135.395946,77.1735207 143.320632,82.8916645 C150.530122,88.0957165 157.761046,133.074239 148.82561,170.415792 C147.955868,174.053893 136.48002,189.2895 130.223748,192.177884 C121.68088,196.120382 16.7760816,108.300877 16.7760816,108.300877" id="Fill-20" fill="#7067A0"></path>
                    <g id="Group-23" transform="translate(3.726577, 71.025840)">
                        <mask id="mask-2" fill="white">
                            <use xlink:href="#path-1"></use>
                        </mask>
                        <use id="Clip-22" fill="#C16C9B" xlink:href="#path-1"></use>
                        <path d="M113.742093,35.6504619 C113.742093,35.6504619 132.977929,22.2761836 141.777997,6.75760132 C150.574681,-8.76210835 170.001161,79.3685573 151.787356,111.078776 C133.572422,142.787868 111.673214,141.64018 111.673214,141.64018 C111.673214,141.64018 116.121191,36.0191199 113.742093,35.6504619" id="Fill-21" fill="#BA538C" mask="url(#mask-2)"></path>
                    </g>
                    <path d="M5.46041912,181.060649 C12.9586953,186.622085 123.485791,199.915191 130.94684,192.934365 C136.166417,188.052748 139.068939,108.190392 126.304836,100.993107 C112.079883,92.9705693 13.6829157,83.2862525 4.54893918,91.2614396 C-1.26964192,96.3403508 -0.890610659,176.349268 5.46041912,181.060649 Z" id="Fill-24" fill="#9D0A5B"></path>
                    <polyline id="Fill-25" fill="#7067A0" points="52.7220077 115.794667 73.5066833 117.733785 73.2754291 166.671716 52.4907535 164.732597 52.7220077 115.794667"></polyline>
                    <g id="Group-28" transform="translate(52.233554, 114.994217)">
                        <mask id="mask-4" fill="white">
                            <use xlink:href="#path-3"></use>
                        </mask>
                        <use id="Clip-27" fill="#C16C9B" xlink:href="#path-3"></use>
                        <polyline id="Fill-26" fill="#BA538C" mask="url(#mask-4)" points="7.57949717 0.50845482 21.8879273 1.84328965 21.6408801 54.2998181 7.33132194 52.9649833 7.57949717 0.50845482"></polyline>
                    </g>
                    <path d="M42.967593,73.9953962 C51.1742967,73.9953962 57.8265209,77.1340619 57.8265209,81.0077886 C57.8265209,84.8792606 51.1742967,88.0179262 42.967593,88.0179262 C34.7608893,88.0179262 28.107537,84.8792606 28.107537,81.0077886 C28.107537,77.1340619 34.7608893,73.9953962 42.967593,73.9953962" id="Fill-29" fill="#9D0A5B"></path>
                    <path d="M110.076432,79.5207556 C118.486188,80.0077899 125.111338,83.7518663 124.872188,87.8826389 C124.631909,92.0134116 117.619831,94.9671846 109.208946,94.4801503 C100.798062,93.9931159 94.1751677,90.2490395 94.4143184,86.1182669 C94.6534691,81.9874942 101.665547,79.0337212 110.076432,79.5207556" id="Fill-30" fill="#9D0A5B"></path>
                    <path d="M98.7167745,84.4328124 C99.1770267,75.1971985 99.5256001,47.8702885 99.5256001,47.8702885 C99.5256001,47.8702885 100.399854,23.6268019 76.9540628,23.3934313 C63.0889639,23.2570166 56.3160362,33.4340048 55.5433088,43.4948713 C54.9961952,50.6154936 54.8179603,73.5681138 54.3125853,78.6582989 C54.0271838,81.5308996 54.0542574,85.1329243 43.3804663,85.9029346 C38.1597619,86.2794843 32.5769473,83.5173683 32.4054808,81.3493891 C32.2170932,78.9705872 31.3394554,56.2197706 32.3637422,41.1070502 C33.3316256,26.8286017 35.5358729,-0.862456624 78.6439105,0.020293097 C122.467144,0.917698944 123.984397,33.3066092 123.278226,49.6639728 C122.252811,73.4181703 122.234762,80.2704728 121.704569,85.9164633 C121.362764,89.5579468 114.979021,92.5477965 109.102908,92.1013483 C103.584393,91.6819577 98.5362834,88.0540029 98.7167745,84.4328124" id="Fill-31" fill="#C3A4C2"></path>
                    <g id="Group-34" transform="translate(30.800238, 0.000000)">
                        <mask id="mask-6" fill="white">
                            <use xlink:href="#path-5"></use>
                        </mask>
                        <g id="Clip-33"></g>
                        <path d="M-3.92455286,70.3674414 C-3.92455286,70.3674414 4.10391587,77.9739706 11.9778391,71.2806308 C11.9778391,71.2806308 12.0161935,54.7327375 13.0856031,42.293069 C13.669943,35.4712062 13.4296642,22.4295092 25.4774436,15.8793484 C46.274528,4.5738386 53.9882654,21.0360499 72.0531661,3.54565501 C78.1278189,-2.33596095 78.6410904,-22.6673894 46.3749261,-15.1984023 C14.10989,-7.72828779 -14.0117479,20.1273701 -3.92455286,70.3674414" id="Fill-32" fill="#E1CCDB" mask="url(#mask-6)"></path>
                    </g>
                </g>
                <g id="Group-5" transform="translate(0.337884, 115.733333)">
                    <path d="M22.8285114,12.1162421 C28.577062,12.1162421 33.2440198,16.6251109 33.2440198,22.1775572 C33.2440198,27.7284689 28.577062,32.2358031 22.8285114,32.2358031 C17.081495,32.2358031 12.4160714,27.7284689 12.4160714,22.1775572 C12.4160714,16.6251109 17.081495,12.1162421 22.8285114,12.1162421 Z M22.8039646,44.4318481 C10.219134,44.4318481 0,34.4764254 0,22.2159241 C0,9.95542273 10.219134,0 22.8039646,0 C32.6058033,0 40.971655,6.04047231 44.1934207,14.5026584 L83.4398116,14.5026584 L83.4398116,7.58742253 L97.7828058,7.58742253 L97.7828058,14.5026584 L103.868875,14.5026584 L103.868875,7.21449703 L114.499167,7.21449703 L114.499167,14.5026584 L120.632796,14.5026584 L120.632796,7.3234588 L128.150249,7.3234588 L128.150249,30.0412209 L120.632796,30.0412209 L120.632796,29.9476058 L44.1857499,29.9476058 C40.9609158,38.4021185 32.5981325,44.4318481 22.8039646,44.4318481 Z" id="Fill-35" fill="#EBA8CD"></path>
                    <path d="M27.8900077,28.1351905 C24.889163,28.7751491 22.5250006,32.2020736 21.9312752,35.6044433 C21.5032407,38.0660585 21.7809262,40.6581209 20.8036572,43.0015664 C19.4259689,46.2980436 15.6948573,46.5343832 14.1054529,49.5039752 C13.3352975,50.9481023 13.1189789,53.4987286 14.4153561,54.7187935 C14.8326514,55.1116697 16.4189875,55.4324164 16.4373976,55.8437087 C16.5539948,58.4004736 13.1511966,61.4130364 15.0765851,64.0127722 C15.674913,64.8246142 17.1599936,65.2144211 18.062088,64.8077328 L19.2710173,63.9836135 C19.9199729,64.4102525 20.3449392,66.0109163 20.8082598,66.6907763 C22.3071479,68.9007052 24.818591,70.9694442 27.5478868,70.6978071 C28.4070244,70.6118655 29.1894532,70.2696334 29.9289251,69.8215089 C34.7308902,66.9071652 41.9706581,68.9452107 43.9988363,63.544697 C46.7787599,56.1306925 40.2263021,56.7614431 42.1977158,51.8366779 C44.6033009,45.8299684 41.0946446,44.9183727 40.6988277,41.9886823 C40.349036,39.4012239 40.895202,36.5758912 40.2554514,34.0513543 C39.2843191,30.2131376 34.6342373,26.6987367 27.8900077,28.1351905" id="Fill-36" fill="#212121"></path>
                    <path d="M30.5916884,73.3420484 C30.5916884,73.3420484 33.4467865,71.0584553 34.1831901,75.3401925 C36.1638089,86.8379614 34.6526473,106.52321 33.4636624,113.719291 C32.2716091,120.913837 32.8116384,138.567179 34.068127,144.463392 C34.068127,144.463392 33.6094089,148.138933 31.6211192,145.520782 C29.6328295,142.90263 21.5093774,122.905843 26.3389576,112.838389 C26.3389576,112.838389 14.5917861,89.1031385 23.6618237,76.3208484 C25.8173384,73.2821962 30.5916884,73.3420484 30.5916884,73.3420484" id="Fill-37" fill="#9D0A5B"></path>
                    <path d="M29.4717412,43.3668185 C27.3315683,42.6209675 27.4144137,40.8161922 27.4144137,40.8161922 C27.4144137,40.8161922 26.0704771,41.0571359 25.6194299,39.3920158 C25.3478811,38.3822011 26.1364466,38.0445731 26.5614128,38.0108103 C27.7289194,37.9125912 28.509814,40.3588597 28.8504007,40.1010347 C30.4321342,38.8978512 29.6144194,37.8542736 29.2769011,37.0055996 C28.9669979,36.2259858 29.7448242,34.9798314 30.932275,35.2898353 C35.988913,36.6111886 36.7391242,32.1560334 37.1318728,33.3929797 C38.2288073,36.8475283 36.6010485,42.3385877 35.2172234,44.3152463 C35.2172234,44.3152463 30.8187461,43.837963 29.4717412,43.3668185" id="Fill-38" fill="#FFEBF6"></path>
                    <path d="M36.3371706,54.7479523 C35.4488837,52.5871329 32.6214008,48.5954489 28.0464934,48.8379272 C25.6178957,48.9668397 25.7145487,63.3175654 28.9040968,70.8727598 C30.2879219,74.1523557 33.8119199,76.9592723 34.7094118,73.5154665 C35.6053695,70.0716606 37.2239232,56.9103063 36.3371706,54.7479523" id="Fill-39" fill="#C3A4C2"></path>
                    <path d="M29.0621167,41.1139188 C29.0621167,41.1139188 29.6389662,41.7170452 29.7739735,42.6209675 C29.9350618,43.6860304 29.7064699,45.4570429 27.7642054,47.3109277 C26.1609934,48.8425312 31.5628206,50.7378521 32.4326973,49.2031793 L33.4713332,44.1602443 C33.4713332,44.1602443 34.1417674,41.8106602 29.0621167,41.1139188" id="Fill-40" fill="#FFEBF6"></path>
                    <path d="M34.4255896,66.7460246 L35.257112,71.1290502 C35.257112,71.1290502 34.6725916,80.5933776 32.1412043,84.3732768 C29.6128852,88.153176 29.3106529,88.1976816 28.7230642,85.9309698 C28.1370097,83.664258 27.6215272,77.5930922 21.7732553,75.72693 C21.7732553,75.72693 24.8416036,72.8079823 27.7473295,71.7014832 C29.5100956,71.0323658 27.4098112,64.6803549 27.4098112,64.6803549 L34.4255896,66.7460246" id="Fill-41" fill="#C3A4C2"></path>
                    <path d="M24.8477403,69.6588336 C28.0817794,67.9676241 34.4041111,70.9249387 34.5728703,75.2803402 C34.7431636,79.6372764 29.329063,107.872187 27.2303128,114.839602 C25.1300284,121.805482 15.5475766,131.754766 12.5083776,139.296149 C12.5083776,139.296149 11.578668,142.875006 10.0506306,139.986751 C8.52259313,137.095428 13.9934582,120.264671 20.607283,112.922796 C20.607283,112.922796 2.52704053,81.3315553 24.8477403,69.6588336" id="Fill-42" fill="#9D0A5B"></path>
                    <path d="M55.9776681,18.5649707 C55.9960782,18.3731366 57.3446173,17.2021812 57.5149106,17.0241591 C58.1669346,16.3442991 58.4016633,16.0097404 58.848108,15.1917598 C59.2408565,14.4689289 58.9432267,14.5395238 59.1181226,14.1972918 C59.156477,14.1251622 59.3789322,14.2464013 59.5292813,14.7282886 C59.7287239,15.3759205 59.3160311,15.8654812 59.3482487,15.8455304 C60.1337459,15.3452271 62.8446316,13.4744609 63.0655527,13.9072386 C63.1852183,14.1359049 60.1076649,16.1233062 60.1460193,16.1110288 C60.4712642,16.0220178 62.3613668,15.3037909 63.0532793,14.9861136 C63.7221792,14.6776444 63.8280373,14.7712594 63.904746,14.8019529 C63.9814547,14.8311117 63.7359868,15.0475005 63.5165999,15.1641357 C62.8139481,15.5401305 60.663036,16.8630185 60.399158,16.9673763 C60.3454619,16.9903963 62.6728041,16.3243483 63.5365442,16.2184559 C64.116462,16.147861 64.55677,16.2598921 63.6086504,16.645095 C62.9336137,16.9198014 62.214086,17.0640606 61.4991609,17.2635681 C61.1800527,17.3525791 60.6231474,17.6119388 60.3040392,17.7009499 C60.1644294,17.7393167 61.764573,17.6104042 62.3260808,17.6150082 C62.645189,17.6180775 62.9090669,17.6518403 63.2128334,17.7393167 C63.3739217,17.7853569 63.1591373,18.0401126 62.8891227,18.0723407 C62.2493721,18.146005 61.4516015,18.136797 60.8317951,18.385414 C60.2273305,18.6278923 59.5323496,18.8381424 58.5090555,19.7405301 C58.0349956,20.1579611 55.9776681,18.5649707 55.9776681,18.5649707" id="Fill-43" fill="#FFEBF6"></path>
                    <path d="M30.7788576,49.1556044 C30.7788576,49.1556044 32.2823483,53.3728854 41.5165425,41.2796634 L58.7944119,19.3706739 C58.7944119,19.3706739 58.8680522,16.0880087 56.18785,18.3332351 C53.5076477,20.5799961 40.3536385,35.9696954 36.4092768,39.2845887 C32.4664492,42.5979474 28.4346395,45.6120449 30.7788576,49.1556044" id="Fill-44" fill="#FFEBF6"></path>
                    <path d="M25.9538799,52.2126727 C26.4724307,53.6199677 28.4100927,53.919229 30.7236273,52.9723358 C31.0534748,52.8372846 33.3332576,51.1706299 35.4381445,48.8824327 L44.0617374,38.9715155 L40.1020339,34.9414646 L29.8246013,44.0205891 C29.8246013,44.0205891 24.9305857,49.4410536 25.9538799,52.2126727" id="Fill-45" fill="#C493AE"></path>
                    <path d="M33.9131754,145.054241 C33.733677,144.85013 32.6643576,143.648481 34.5958829,144.477204 C35.5838911,144.902308 36.6194586,144.952953 39.0035653,144.939141 C39.8519636,144.933002 41.1621483,144.851664 42.1823741,145.161668 C42.8896284,145.376522 43.1059469,145.846132 43.2777744,146.275841 C37.8698105,147.746057 32.0583588,147.00788 31.5091245,146.839066 C31.038133,145.692665 31.6870887,145.688061 31.1746745,145.209243 C31.2268365,144.899239 33.1767718,144.952953 33.9131754,145.054241" id="Fill-46" fill="#9D0A5B"></path>
                    <g id="Group-49" transform="translate(30.686807, 143.769720)">
                        <mask id="mask-8" fill="white">
                            <use xlink:href="#path-7"></use>
                        </mask>
                        <g id="Clip-48"></g>
                        <path d="M5.05050132,2.2774545 L4.45984427,2.43245645 L5.05050132,2.2774545 Z M11.4526101,2.38027758 C9.36306487,2.88365027 7.02038094,3.08008839 4.52734793,2.81152065 C5.22693135,2.51379412 5.91884389,2.28819721 6.66138418,2.06566965 C7.55427354,1.7971019 8.54074752,1.95056918 8.90894932,1.99047068 C9.59932769,2.07794703 9.97213201,2.18997815 10.3434022,2.23908768 C10.711604,2.28666253 11.0828741,2.33577207 11.4526101,2.38027758 Z M3.41660584,2.66112271 C3.09596345,2.6104785 2.77378687,2.55062626 2.45007613,2.48310066 C1.37615422,2.2943359 -0.167224983,1.92908376 -0.223989427,1.91527171 C-1.35160743,1.6390306 -2.86430315,2.58131972 1.64156635,3.38088427 C7.42540291,4.803526 12.4237423,3.8198007 16.8145487,2.21913693 L18.2582066,1.56690097 L18.3042318,1.33056135 L17.5601574,1.35665079 C16.8513689,1.55769293 16.1594564,1.76947779 15.459873,1.99507469 L16.1778665,1.45026584 C16.3098054,1.20778753 16.2469043,1.10956846 15.8296089,0.930011742 C15.0778636,0.698276143 15.0609877,1.10649912 15.0609877,1.10649912 C14.2862297,1.47788995 13.4439681,1.80784461 12.5464762,2.08101637 C11.575344,2.01962946 7.80280975,1.28759051 5.75468726,1.97819329 C5.75468726,1.97819329 4.59331742,2.23908768 4.02720716,2.43706047 C3.82009365,2.5091901 3.61604848,2.58438907 3.41660584,2.66112271 Z" id="Fill-47" fill="#E0E2DD" mask="url(#mask-8)"></path>
                    </g>
                    <path d="M11.3178584,140.843099 C11.3961013,140.583739 11.8440802,139.038323 12.1723934,141.110132 C12.3396184,142.170591 12.8489642,143.069909 14.1346022,145.071122 C14.5917861,145.783211 15.3619415,146.84367 15.6426954,147.868831 C15.8375355,148.579385 15.5567816,149.012162 15.2836986,149.386622 C11.1490993,145.614397 8.66987385,140.324379 8.52105896,139.771897 C9.24058663,138.762082 9.59344669,139.305357 9.72538567,138.619358 C10.0138104,138.496584 11.0110236,140.167843 11.3178584,140.843099" id="Fill-50" fill="#9D0A5B"></path>
                    <g id="Group-53" transform="translate(7.674195, 137.631028)">
                        <mask id="mask-10" fill="white">
                            <use xlink:href="#path-9"></use>
                        </mask>
                        <g id="Clip-52"></g>
                        <path d="M3.7756026,5.27927458 L3.33069209,4.86491291 L3.7756026,5.27927458 Z M7.10782886,10.7273632 C5.56444966,9.23873051 4.14687274,7.36949899 3.04380152,5.12580729 C3.67127875,5.55551569 4.23125232,6.01745221 4.81577267,6.52235958 C5.52149279,7.1316247 5.91730972,8.04628971 6.078398,8.37624437 C6.37449362,9.00546024 6.47881746,9.37838574 6.63530322,9.71908311 C6.79178899,10.0567111 6.94674058,10.3928045 7.10782886,10.7273632 Z M2.57741258,4.1083192 C2.45007613,3.81059267 2.32887637,3.50672744 2.21227913,3.1982582 C1.79958628,2.19458216 1.28563794,0.695206798 1.26569368,0.639958575 C0.899026055,-0.457332507 -0.707254286,-1.22773827 1.02022581,2.99721606 C2.9026575,8.63100006 6.4051771,12.3157496 10.1071393,15.1625677 L11.4295975,16.0296578 L11.6566552,15.9406468 L11.2362915,15.3283123 C10.6885913,14.8387517 10.1378228,14.3691418 9.57324673,13.8995319 L10.4185767,14.2141399 C10.694728,14.1941891 10.7453558,14.0898314 10.6732496,13.6432416 C10.4692044,12.8851132 10.1163444,13.0892247 10.1163444,13.0892247 C9.38454331,12.6318922 8.65581059,12.1008954 7.94548795,11.4900956 C7.47756483,10.6398868 6.08606887,7.06870311 4.40614817,5.71358699 C4.40614817,5.71358699 3.56388656,4.87412095 3.09596345,4.50426479 C2.92260177,4.36767891 2.75077426,4.23569704 2.57741258,4.1083192 Z" id="Fill-51" fill="#E0E2DD" mask="url(#mask-10)"></path>
                    </g>
                    <path d="M34.3166632,76.6738232 C34.3166632,76.6738232 31.7300456,78.2714176 27.0799637,76.9055588 C23.1263969,75.7422768 22.1890165,71.5940561 22.1890165,71.5940561 C22.1890165,71.5940561 20.6548424,54.1494299 28.4146952,46.9993891 L33.5265635,46.5205712 C33.5265635,46.5205712 35.4320078,47.6516251 36.7145774,48.6599051 C37.1901714,49.0359 39.0587955,55.4938033 39.3288102,57.3906589 C39.8396902,60.9802587 36.7575343,68.8193676 34.3166632,76.6738232" id="Fill-54" fill="#C493AE"></path>
                </g>
            </g>
        </g>
    </g>
</svg>