<?xml version="1.0" encoding="UTF-8"?>
<svg width="30px" height="30px" viewBox="0 0 30 30" version="1.1" xmlns="http://www.w3.org/2000/svg" xmlns:xlink="http://www.w3.org/1999/xlink">
    <!-- Generator: Sketch 52.6 (67491) - http://www.bohemiancoding.com/sketch -->
    <title>linkedin-logo-button</title>
    <desc>Created with Sketch.</desc>
    <g id="assets" stroke="none" stroke-width="1" fill="none" fill-rule="evenodd">
        <g id="Artboard" transform="translate(-202.000000, -248.000000)" fill="#E5C7CD">
            <g id="linkedin-logo-button" transform="translate(202.000000, 248.000000)">
                <path d="M17.61,12.7788 C16.335,12.7788 15.7656,13.4796 15.447,13.9716 L15.447,12.9492 L13.0458,12.9492 C13.077,13.626 13.0458,20.1738 13.0458,20.1738 L15.447,20.1738 L15.447,16.1376 C15.447,15.9222 15.4608,15.7056 15.5256,15.5514 C15.6996,15.1194 16.0944,14.6724 16.758,14.6724 C17.6268,14.6724 17.9742,15.3348 17.9742,16.3068 L17.9742,20.172 L20.3754,20.172 L20.376,20.172 L20.376,16.029 C20.3748,13.8114 19.1898,12.7788 17.61,12.7788 Z" id="Shape" fill-rule="nonzero"></path>
                <rect id="Rectangle" x="9.3138" y="12.9492" width="2.4012" height="7.2246"></rect>
                <path d="M14.8956,0 C6.6822,0 0,6.6822 0,14.8956 C0,23.1084 6.6822,29.7912 14.8956,29.7912 C23.1084,29.7912 29.7912,23.1084 29.7912,14.8956 C29.7912,6.6822 23.1096,0 14.8956,0 Z M22.7946,21.633 C22.7946,22.2666 22.269,22.779 21.6192,22.779 L8.0706,22.779 C7.4226,22.779 6.8964,22.2666 6.8964,21.633 L6.8964,7.9266 C6.8964,7.2936 7.4226,6.7806 8.0706,6.7806 L21.6192,6.7806 C22.2684,6.7806 22.7946,7.2942 22.7946,7.9266 L22.7946,21.633 Z" id="Shape" fill-rule="nonzero"></path>
                <path d="M10.5306,9.4662 C9.7098,9.4662 9.1722,10.005 9.1722,10.7142 C9.1722,11.4072 9.6936,11.9622 10.4988,11.9622 L10.5144,11.9622 C11.352,11.9622 11.8734,11.4072 11.8734,10.7142 C11.8572,10.0056 11.3526,9.4662 10.5306,9.4662 Z" id="Path"></path>
            </g>
        </g>
    </g>
</svg>