<?xml version="1.0" encoding="UTF-8"?>
<svg width="18px" height="12px" viewBox="0 0 18 12" version="1.1" xmlns="http://www.w3.org/2000/svg" xmlns:xlink="http://www.w3.org/1999/xlink">
    <!-- Generator: Sketch 52.6 (67491) - http://www.bohemiancoding.com/sketch -->
    <title>united-states-of-america</title>
    <desc>Created with Sketch.</desc>
    <g id="assets" stroke="none" stroke-width="1" fill="none" fill-rule="evenodd">
        <g id="Artboard" transform="translate(-993.000000, -1278.000000)">
            <g id="united-states-of-america" transform="translate(993.000000, 1278.000000)">
                <rect id="Rectangle" fill="#F0F0F0" x="0" y="0.0116140351" width="18" height="11.9767368"></rect>
                <g id="Group" transform="translate(0.000000, 1.473684)" fill="#D80027">
                    <rect id="Rectangle" x="0" y="0.034877193" width="18" height="1.49694737"></rect>
                    <rect id="Rectangle" x="0" y="3.02915789" width="18" height="1.49694737"></rect>
                    <rect id="Rectangle" x="0" y="6.02305263" width="18" height="1.49694737"></rect>
                    <rect id="Rectangle" x="0" y="9.01733333" width="18" height="1.49694737"></rect>
                </g>
                <rect id="Rectangle" fill="#2E52B2" x="0" y="0.0116140351" width="9" height="6.44901754"></rect>
                <g id="Group" transform="translate(0.914062, 1.017544)" fill="#F0F0F0">
                    <polygon id="Path" points="2.59530469 1.63592982 2.45035547 2.08098246 1.98151172 2.08098246 2.36088281 2.35589474 2.21593359 2.80091228 2.59530469 2.526 2.97442969 2.80091228 2.82951562 2.35589474 3.20888672 2.08098246 2.74000781 2.08098246"></polygon>
                    <polygon id="Path" points="2.74000781 3.68701754 2.59530469 3.242 2.45035547 3.68701754 1.98151172 3.68701754 2.36088281 3.96196491 2.21593359 4.40698246 2.59530469 4.13203509 2.97442969 4.40698246 2.82951562 3.96196491 3.20888672 3.68701754"></polygon>
                    <polygon id="Path" points="0.758566406 3.68701754 0.613828125 3.242 0.468878906 3.68701754 3.515625e-05 3.68701754 0.37940625 3.96196491 0.234457031 4.40698246 0.613828125 4.13203509 0.992988281 4.40698246 0.848074219 3.96196491 1.227375 3.68701754"></polygon>
                    <polygon id="Path" points="0.613828125 1.63592982 0.468878906 2.08098246 3.515625e-05 2.08098246 0.37940625 2.35589474 0.234457031 2.80091228 0.613828125 2.526 0.992988281 2.80091228 0.848074219 2.35589474 1.227375 2.08098246 0.758566406 2.08098246"></polygon>
                    <polygon id="Path" points="2.59530469 0.0298245614 2.45035547 0.474912281 1.98151172 0.474912281 2.36088281 0.749859649 2.21593359 1.19487719 2.59530469 0.919929825 2.97442969 1.19487719 2.82951562 0.749859649 3.20888672 0.474912281 2.74000781 0.474912281"></polygon>
                    <polygon id="Path" points="0.613828125 0.0298245614 0.468878906 0.474912281 3.515625e-05 0.474912281 0.37940625 0.749859649 0.234457031 1.19487719 0.613828125 0.919929825 0.992988281 1.19487719 0.848074219 0.749859649 1.227375 0.474912281 0.758566406 0.474912281"></polygon>
                    <polygon id="Path" points="4.57674609 1.63592982 4.43183203 2.08098246 3.96298828 2.08098246 4.34232422 2.35589474 4.19744531 2.80091228 4.57674609 2.526 4.95594141 2.80091228 4.81099219 2.35589474 5.19036328 2.08098246 4.72151953 2.08098246"></polygon>
                    <polygon id="Path" points="4.72151953 3.68701754 4.57674609 3.242 4.43183203 3.68701754 3.96298828 3.68701754 4.34232422 3.96196491 4.19744531 4.40698246 4.57674609 4.13203509 4.95594141 4.40698246 4.81099219 3.96196491 5.19036328 3.68701754"></polygon>
                    <polygon id="Path" points="6.70299609 3.68701754 6.55825781 3.242 6.41330859 3.68701754 5.9445 3.68701754 6.32380078 3.96196491 6.17888672 4.40698246 6.55825781 4.13203509 6.93741797 4.40698246 6.79246875 3.96196491 7.17183984 3.68701754"></polygon>
                    <polygon id="Path" points="6.55825781 1.63592982 6.41330859 2.08098246 5.9445 2.08098246 6.32380078 2.35589474 6.17888672 2.80091228 6.55825781 2.526 6.93741797 2.80091228 6.79246875 2.35589474 7.17183984 2.08098246 6.70299609 2.08098246"></polygon>
                    <polygon id="Path" points="4.57674609 0.0298245614 4.43183203 0.474912281 3.96298828 0.474912281 4.34232422 0.749859649 4.19744531 1.19487719 4.57674609 0.919929825 4.95594141 1.19487719 4.81099219 0.749859649 5.19036328 0.474912281 4.72151953 0.474912281"></polygon>
                    <polygon id="Path" points="6.55825781 0.0298245614 6.41330859 0.474912281 5.9445 0.474912281 6.32380078 0.749859649 6.17888672 1.19487719 6.55825781 0.919929825 6.93741797 1.19487719 6.79246875 0.749859649 7.17183984 0.474912281 6.70299609 0.474912281"></polygon>
                </g>
            </g>
        </g>
    </g>
</svg>